HIERARCHY
ROOT Hips
{
	OFFSET -3.958830 18.904000 13.208200
	CHANNELS 6 Xposition Yposition Zposition Zrotation Yrotation Xrotation 
	JOINT LHipJoint
	{
		OFFSET 0.000000 0.000000 0.000000
		CHANNELS 3 Zrotation Yrotation Xrotation
		JOINT LeftUpLeg
		{
			OFFSET 1.800000 -1.400000 0.085000
			CHANNELS 3 Zrotation Yrotation Xrotation
			JOINT LeftLeg
			{
				OFFSET 2.215000 -6.000000 0.000000
				CHANNELS 3 Zrotation Yrotation Xrotation
				JOINT LeftFoot
				{
					OFFSET 2.500000 -6.900000 0.000000
					CHANNELS 3 Zrotation Yrotation Xrotation
					JOINT LeftToeBase
					{
						OFFSET 0.200000 -0.500000 1.950000
						CHANNELS 3 Zrotation Yrotation Xrotation
						End Site
						{
							OFFSET 0.000000 0.000000 0.000000
						}
					}
				}
			}
		}
	}
	JOINT RHipJoint
	{
		OFFSET 0.000000 0.000000 0.000000
		CHANNELS 3 Zrotation Yrotation Xrotation
		JOINT RightUpLeg
		{
			OFFSET -1.800000 -1.400000 0.085000
			CHANNELS 3 Zrotation Yrotation Xrotation
			JOINT RightLeg
			{
				OFFSET -2.215000 -6.000000 0.000000
				CHANNELS 3 Zrotation Yrotation Xrotation
				JOINT RightFoot
				{
					OFFSET -2.500000 -6.900000 0.000000
					CHANNELS 3 Zrotation Yrotation Xrotation
					JOINT RightToeBase
					{
						OFFSET -0.200000 -0.500000 1.950000
						CHANNELS 3 Zrotation Yrotation Xrotation
						End Site
						{
							OFFSET 0.000000 0.000000 0.000000
						}
					}
				}
			}
		}
	}
	JOINT LowerBack
	{
		OFFSET 0.000000 0.000000 0.000000
		CHANNELS 3 Zrotation Yrotation Xrotation
		JOINT Spine
		{
			OFFSET -0.087000 1.940000 -0.288900
			CHANNELS 3 Zrotation Yrotation Xrotation
			JOINT Spine1
			{
				OFFSET 0.000000 1.950000 0.060000
				CHANNELS 3 Zrotation Yrotation Xrotation
				JOINT Neck
				{
					OFFSET 0.000000 0.000000 0.000000
					CHANNELS 3 Zrotation Yrotation Xrotation
					JOINT Neck1
					{
						OFFSET 0.000000 1.600000 0.340000
						CHANNELS 3 Zrotation Yrotation Xrotation
						JOINT Head
						{
							OFFSET 0.000000 1.667000 -0.240000
							CHANNELS 3 Zrotation Yrotation Xrotation
							End Site
							{
								OFFSET 0.000000 0.000000 0.000000
							}
						}
					}
				}
				JOINT LeftShoulder
				{
					OFFSET 0.000000 0.000000 0.000000
					CHANNELS 3 Zrotation Yrotation Xrotation
					JOINT LeftArm
					{
						OFFSET 2.700000 1.550000 -0.730000
						CHANNELS 3 Zrotation Yrotation Xrotation
						JOINT LeftForeArm
						{
							OFFSET 5.450000 0.000000 0.000000
							CHANNELS 3 Zrotation Yrotation Xrotation
							JOINT LeftHand
							{
								OFFSET 3.450000 0.000000 0.000000
								CHANNELS 3 Zrotation Yrotation Xrotation
								JOINT LeftHandIndex1
								{
									OFFSET 0.750000 0.000000 0.000000
									CHANNELS 3 Zrotation Yrotation Xrotation
									End Site
									{
										OFFSET 0.000000 0.000000 0.000000
									}
								}
							}
						}
					}
				}
				JOINT RightShoulder
				{
					OFFSET 0.000000 0.000000 0.000000
					CHANNELS 3 Zrotation Yrotation Xrotation
					JOINT RightArm
					{
						OFFSET -2.700000 1.550000 -0.730000
						CHANNELS 3 Zrotation Yrotation Xrotation
						JOINT RightForeArm
						{
							OFFSET -5.450000 0.000000 0.000000
							CHANNELS 3 Zrotation Yrotation Xrotation
							JOINT RightHand
							{
								OFFSET -3.450000 0.000000 0.000000
								CHANNELS 3 Zrotation Yrotation Xrotation
								JOINT RightHandIndex1
								{
									OFFSET -0.750000 0.000000 0.000000
									CHANNELS 3 Zrotation Yrotation Xrotation
									End Site
									{
										OFFSET 0.000000 0.000000 0.000000
									}
								}
							}
						}
					}
				}
			}
		}
	}
}
MOTION
Frames: 7
Frame Time: 0.016667
20.291360 17.955770 -22.797110 -22.741083 -48.529713 12.368464 -15.945773 14.392919 3.018727 7.097455 -2.991450 -30.292357 11.590689 2.923263 39.727778 0.473770 5.263104 2.344601 0.526280 0.270100 0.967200 17.625058 -8.793679 4.131327 23.086422 1.374732 -6.083290 3.864800 -4.447146 20.811331 -0.770536 -3.322630 3.099927 -0.250790 -0.939190 0.191940 -0.624866 -6.025765 -8.649331 -2.818995 2.242616 27.827646 10.607016 13.883979 -21.274673 6.991584 11.864279 -24.390477 26.562645 -17.667868 53.774226 -19.224400 4.599340 -5.636150 -10.885661 -25.957291 13.985669 8.555371 10.183817 -1.257755 -0.898690 -13.532120 1.527325 -2.800542 2.950659 0.726530 -0.547340 0.814280 0.037190 -3.536359 27.559385 7.953692 -50.056157 14.930966 -5.780055 -3.622827 25.390799 3.392241 3.098392 -1.492172 0.253170 -0.548280 -0.721670 -0.219500 
20.291030 17.986020 -22.905950 -15.758764 -48.500904 4.584491 -15.940806 14.245962 3.087553 3.677452 -3.814693 -29.435781 10.880846 3.395176 43.229312 0.576526 5.660391 2.185101 0.707380 0.511570 1.054630 17.685379 -8.914712 3.739346 19.632602 0.283196 -3.718108 2.014858 -3.907402 18.598074 -0.773703 -3.241069 3.133091 -0.098220 -1.043220 0.127050 -0.649675 -5.909908 -8.240405 -9.878067 8.284675 30.365848 14.907079 15.590945 -20.154635 6.183881 11.305004 -23.336304 23.811079 -18.670716 54.085364 -14.546500 0.071070 -10.388980 -10.287135 -26.870954 13.170624 9.050083 2.364445 -1.635014 4.108859 -14.204863 1.508823 -2.612385 2.961033 0.788190 -0.659510 0.897770 0.121080 -1.864310 28.252345 7.546481 -52.727726 11.373580 -4.785781 6.692358 23.293667 5.022527 3.188209 -1.744390 0.248230 -0.566540 -0.916500 -0.177190 
20.416060 17.969430 -22.945650 -14.346997 -42.254641 -2.901557 -15.881375 14.605924 2.974880 1.067341 -4.545521 -24.266005 14.878935 0.476355 43.110622 0.662551 5.507407 2.325116 0.758040 0.628180 1.000940 17.698071 -8.761643 4.001640 20.226796 -1.730636 2.351588 -0.438550 -3.604199 12.775858 -0.879205 -3.250040 3.175929 -0.024160 -1.004730 0.012950 -0.738742 -6.862326 -8.505115 -5.458042 5.462906 42.925212 8.204800 15.767732 -19.636664 6.098782 9.412793 -23.950425 16.780724 -17.180728 57.756667 -2.793170 -7.335390 -15.745700 -7.161803 -26.436820 13.884625 7.430574 1.712144 -1.802607 6.122350 -7.710363 0.907049 -2.608122 2.734877 0.839220 -0.762070 0.920360 0.192780 -4.272140 28.935061 8.043992 -50.582225 2.971570 -4.176194 1.796520 19.435760 3.151299 3.199371 -1.407624 0.209260 -0.431090 -0.984180 -0.101350 
20.402270 17.902430 -22.918330 -13.165453 -40.164840 -3.385505 -15.888145 14.566626 2.857577 0.651173 -4.365688 -22.085863 13.103190 0.926201 40.807531 0.513807 5.174363 2.532770 0.709510 0.594450 0.924300 17.689262 -8.644863 4.357027 23.344454 -3.622703 4.905849 -7.205071 -2.642296 4.570040 -0.804597 -3.283270 3.230091 0.056840 -0.847530 -0.126200 -0.746321 -6.859020 -8.679512 -2.869152 4.048972 41.508626 6.458674 13.256684 -15.351436 7.354788 7.438140 -23.849552 10.493903 -15.091688 56.049010 -2.616850 -10.288700 -10.774730 -6.930740 -25.695229 13.989579 4.626511 2.282341 -1.784300 10.135822 -4.488391 0.713582 -2.716468 2.630490 0.764040 -0.680460 0.758770 0.229110 -6.639819 29.781981 9.290174 -49.235491 -3.451868 -3.102484 -4.976716 17.604884 1.702517 3.179045 -1.258907 0.063660 -0.295750 -0.991210 -0.062980 
20.413970 17.951780 -22.965390 -9.397500 -37.508747 -10.903248 -15.934147 14.484524 3.177086 -2.599692 -6.747319 -18.547139 13.309783 0.339149 45.999356 0.528222 6.244493 2.281015 0.740950 0.558190 0.999830 17.694347 -8.421038 4.160386 20.247515 -4.078064 9.011260 -7.224896 -3.076942 5.007561 -0.831935 -3.775270 3.117319 0.143690 -0.711430 -0.211320 -0.733639 -7.586129 -8.778891 -5.742599 2.873160 50.035468 5.889196 9.615005 -12.739027 8.839962 5.347332 -23.265297 5.463769 -11.476932 50.310750 -2.692760 -8.063490 -12.704040 -7.732244 -25.016423 14.769401 5.699726 8.373701 -1.531560 10.303942 -1.919110 0.593162 -2.796337 2.453849 0.863120 -0.611800 0.631200 0.233960 -9.222804 30.662651 9.188124 -50.704651 -4.522136 -5.940428 -6.668931 10.167452 0.117860 3.190872 -1.029874 -0.149350 -0.180690 -1.017480 -0.128210 
20.353100 17.954090 -22.930320 -7.468908 -37.094025 -9.816124 -15.967956 14.199489 3.289167 -3.804953 -7.247367 -19.077584 12.241268 0.763815 44.689977 0.092234 5.794188 2.353983 0.812810 0.695850 1.382400 17.691904 -8.584086 3.993952 19.541866 -3.871625 6.961665 -8.626401 -2.680178 4.246323 -0.459080 -3.662417 3.235168 0.401680 -0.800780 -0.560520 -0.753709 -6.936043 -8.613993 -8.523255 4.728713 45.739960 9.410457 8.351738 -11.846939 7.072029 7.369455 -22.535540 10.412488 -17.667080 48.208867 -1.498400 -11.867820 -15.781770 -8.398224 -25.155289 14.538815 4.603310 6.118986 -1.925842 9.791933 2.485496 0.932204 -2.513066 1.843065 1.093040 -0.649990 0.659510 0.111870 -6.614685 29.113903 8.668893 -51.449240 -2.499265 -6.612609 -9.020742 9.717898 -0.642010 3.489640 -1.018460 -0.576300 -0.123060 -1.441620 -0.148000 
20.321220 17.915770 -22.846740 -9.343706 -38.313738 -5.957763 -15.912150 14.559030 3.022266 -1.060324 -5.500840 -19.083192 10.221301 1.681505 39.925672 -0.128750 5.117742 2.559317 0.820600 0.758610 1.218130 17.680264 -8.608848 4.175988 21.314727 -3.390340 4.817011 -9.052499 -2.387403 3.921239 -0.358582 -3.592118 3.261456 0.504880 -0.698150 -0.499740 -0.731065 -7.177455 -8.689611 -6.186511 2.778083 40.749440 9.501463 5.681637 -11.261989 8.617697 5.029242 -22.079023 4.578852 -12.950629 49.066746 -3.687380 -10.066190 -9.613380 -10.235775 -25.034631 12.253163 8.072929 2.825668 -3.625321 -7.928432 31.773620 -2.868275 -3.053110 1.683666 0.972290 -0.531250 0.592760 0.203830 -6.712073 30.516705 10.505039 -50.314793 -1.171909 -9.642381 -21.191285 -3.329836 -1.487034 3.541575 -1.145908 -0.565950 -0.142690 -1.401330 -0.083160 
